<svg id="visual" viewBox="0 0 900 600" width="900" height="600" xmlns="http://www.w3.org/2000/svg" xmlns:xlink="http://www.w3.org/1999/xlink" version="1.1"><g transform="translate(493.71772409904503 319.9778184934381)"><path d="M132.6 -263.4C153.3 -217.8 138.6 -144.7 134 -96.2C129.4 -47.7 135 -23.8 148.7 7.9C162.5 39.7 184.3 79.3 173.3 101C162.4 122.6 118.7 126.3 84.4 162.9C50 199.6 25 269.3 -2 272.8C-29 276.2 -58 213.5 -102.2 182.5C-146.3 151.5 -205.7 152.2 -221.7 127.1C-237.7 102 -210.3 51 -220.3 -5.7C-230.3 -62.5 -277.5 -125 -259.8 -147.2C-242.2 -169.5 -159.6 -151.4 -105.5 -177.7C-51.3 -203.9 -25.7 -274.5 15.2 -300.7C56 -327 112 -309 132.6 -263.4" fill="#1d1d1d"></path></g></svg>