<svg id="visual" viewBox="0 0 900 600" width="900" height="600" xmlns="http://www.w3.org/2000/svg" xmlns:xlink="http://www.w3.org/1999/xlink" version="1.1"><rect x="0" y="0" width="900" height="600" fill="#000000"></rect><defs><linearGradient id="grad1_0" x1="33.3%" y1="100%" x2="100%" y2="0%"><stop offset="20%" stop-color="#000000" stop-opacity="1"></stop><stop offset="80%" stop-color="#000000" stop-opacity="1"></stop></linearGradient></defs><defs><linearGradient id="grad2_0" x1="0%" y1="100%" x2="66.7%" y2="0%"><stop offset="20%" stop-color="#000000" stop-opacity="1"></stop><stop offset="80%" stop-color="#000000" stop-opacity="1"></stop></linearGradient></defs><g transform="translate(900, 600)"><path d="M-295 0C-284.3 -19.6 -273.5 -39.2 -272 -62.1C-270.5 -85 -278.3 -111.2 -268 -129.1C-257.7 -146.9 -229.5 -156.3 -209.5 -167.1C-189.6 -177.8 -177.9 -189.9 -167.1 -209.5C-156.3 -229.2 -146.4 -256.4 -128.4 -266.7C-110.5 -277 -84.4 -270.5 -61.6 -270.1C-38.9 -269.6 -19.4 -275.3 0 -281L0 0Z" fill="#e8d231"></path></g><g transform="translate(0, 0)"><path d="M294 0C290.9 21.1 287.8 42.3 285.7 65.2C283.5 88.1 282.4 112.9 268 129.1C253.6 145.2 225.8 152.7 208.7 166.5C191.7 180.2 185.4 200.1 173.3 217.3C161.2 234.6 143.3 249 123.2 255.9C103.2 262.7 81 262 60.1 263.2C39.2 264.5 19.6 267.7 0 271L0 0Z" fill="#e8d231"></path></g></svg>