<svg id="visual" viewBox="0 0 900 600" width="900" height="600" xmlns="http://www.w3.org/2000/svg" xmlns:xlink="http://www.w3.org/1999/xlink" version="1.1"><g transform="translate(451.76589668095477 273.58349428857497)"><path d="M100.6 -181C123.8 -160.8 131.6 -120.6 159 -87.2C186.3 -53.7 233.1 -26.8 234.2 0.6C235.2 28 190.3 56 167 96.4C143.7 136.8 141.8 189.7 117.6 220.2C93.3 250.7 46.7 258.8 9.9 241.7C-26.8 224.5 -53.7 182 -75.3 150C-97 118 -113.4 96.5 -137.7 73.2C-161.9 50 -194 25 -215.6 -12.5C-237.3 -50 -248.5 -100 -223.4 -121.7C-198.2 -143.3 -136.6 -136.6 -93.3 -145.3C-50 -153.9 -25 -178 6.8 -189.8C38.7 -201.6 77.3 -201.3 100.6 -181" fill="#1d1d1d"></path></g></svg>